# xmcd
#
# Track frame offsets: 
#        150
#        17687
#        33207
#        49232
#        65330
#        86415
#        99480
#        115905
#        133075
#        151370
#        167305
#        183427
#        199837
#        216320
#        235245
#        254920
#
# Disc length: 3605 seconds
#
# Revision: 22
# Processed by: cddbd v1.5.2PL0 Copyright (c) Steve Scherf et al.
# Submitted via: ExactAudioCopy v1.3
#
DISCID=db0e1310
DTITLE=Shania Twain - Come On Over
DYEAR=1997
DGENRE=Country
TTITLE0=Man! I Feel Like a Woman!
TTITLE1=I'm Holdin' On to Love (To Save My Life)
TTITLE2=Love Gets Me Every Time
TTITLE3=Don't Be Stupid (You Know I Love You)
TTITLE4=From This Moment On
TTITLE5=Come On Over
TTITLE6=When
TTITLE7=Whatever You Do! Don't!
TTITLE8=If You Wanna Touch Her, Ask!
TTITLE9=You're Still the One
TTITLE10=Honey, I'm Home
TTITLE11=That Don't Impress Me Much
TTITLE12=Black Eyes, Blue Tears
TTITLE13=I Won't Leave You Lonely
TTITLE14=Rock This Country!
TTITLE15=You've Got a Way
EXTD=
EXTT0=
EXTT1=
EXTT2=
EXTT3=
EXTT4=
EXTT5=
EXTT6=
EXTT7=
EXTT8=
EXTT9=
EXTT10=
EXTT11=
EXTT12=
EXTT13=
EXTT14=
EXTT15=
PLAYORDER=
